<svg xmlns="http://www.w3.org/2000/svg" viewBox="0 0 32 32" width="32" height="32" role="img" aria-label="Hot AI">
  <defs>
    <linearGradient id="hotai-fire-icon" x1="5" y1="29" x2="27" y2="3" gradientUnits="userSpaceOnUse">
      <stop offset="0" stop-color="#f97316"/>
      <stop offset=".52" stop-color="#ef4444"/>
      <stop offset="1" stop-color="#d946ef"/>
    </linearGradient>
  </defs>
  <rect x="1" y="1" width="30" height="30" rx="7" fill="url(#hotai-fire-icon)"/>
  <path
    fill="#fff"
    fill-rule="evenodd"
    d="M16.4 3.7c1.1 3.5 4.2 4.8 5.2 8 .8 2.6 0 5.1-1.6 6.7.4-2-.5-3.8-2.3-4.8.2 3.4-2.1 5.5-4.1 7.3-1.9 1.7-2.2 4.3.2 7.4-3.7-1.2-6.2-4.2-6.2-8.4 0-4.1 3.3-6.3 4.9-9.2 1.3-2.4 1.3-4.9.6-6.8 1.3.4 2.4 1.2 3.2 2.6V3.7Zm1.1 14.2c-2.4 2.2-3.6 4.1-3.5 6.6.8-1.8 2.2-3.1 3.8-4.4 1.2-1 1.7-2.6 1.1-4.1-.3.7-.8 1.3-1.4 1.9Z"
  />
</svg>
