<svg xmlns="http://www.w3.org/2000/svg" viewBox="0 0 64 64" width="64" height="64" role="img" aria-label="Hot AI">
  <defs>
    <linearGradient id="hotai-fire" x1="10" y1="58" x2="54" y2="6" gradientUnits="userSpaceOnUse">
      <stop offset="0" stop-color="#f97316"/>
      <stop offset=".52" stop-color="#ef4444"/>
      <stop offset="1" stop-color="#d946ef"/>
    </linearGradient>
    <filter id="hotai-glow" x="-20%" y="-20%" width="140%" height="140%">
      <feDropShadow dx="0" dy="6" stdDeviation="6" flood-color="#7c2d12" flood-opacity=".28"/>
    </filter>
  </defs>
  <rect x="2" y="2" width="60" height="60" rx="14" fill="url(#hotai-fire)"/>
  <path
    fill="#fff"
    fill-rule="evenodd"
    filter="url(#hotai-glow)"
    d="M32.7 7.3c2.1 7.1 8.3 9.7 10.3 16.1 1.6 5.2.1 10.2-3.1 13.4.7-3.9-1-7.5-4.6-9.5.4 6.8-4.1 11-8.1 14.5-3.8 3.4-4.4 8.5.4 14.8-7.4-2.4-12.3-8.5-12.3-16.9 0-8.1 6.6-12.5 9.8-18.4 2.6-4.8 2.6-9.7 1.2-13.6 2.6.7 4.7 2.4 6.4 5.2V7.3Zm2.2 28.4c-4.8 4.3-7.1 8.2-7 13.1 1.6-3.6 4.4-6.1 7.6-8.7 2.4-2 3.4-5.1 2.2-8.1-.7 1.4-1.7 2.6-2.8 3.7Z"
  />
</svg>
